<svg xmlns="http://www.w3.org/2000/svg" xmlns:xlink="http://www.w3.org/1999/xlink" width="512" zoomAndPan="magnify" viewBox="0 0 384 383.999986" height="512" preserveAspectRatio="xMidYMid meet" version="1.0"><defs><g/><clipPath id="a9cfe81fb9"><path d="M 0.480469 0.640625 L 160 0.640625 L 160 57 L 0.480469 57 Z M 0.480469 0.640625 " clip-rule="nonzero"/></clipPath><clipPath id="b82487412d"><rect x="0" width="160" y="0" height="57"/></clipPath><clipPath id="62d525f5ff"><path d="M 0.480469 41 L 110 41 L 110 99 L 0.480469 99 Z M 0.480469 41 " clip-rule="nonzero"/></clipPath><clipPath id="96f55eb5bb"><rect x="0" width="110" y="0" height="58"/></clipPath><clipPath id="c6fe577c8d"><path d="M 0.480469 83 L 163 83 L 163 139.359375 L 0.480469 139.359375 Z M 0.480469 83 " clip-rule="nonzero"/></clipPath><clipPath id="3a1695b788"><rect x="0" width="163" y="0" height="57"/></clipPath><clipPath id="5b57221be7"><path d="M 167.558594 18.378906 L 283.898438 18.378906 L 283.898438 134.71875 L 167.558594 134.71875 Z M 167.558594 18.378906 " clip-rule="nonzero"/></clipPath><clipPath id="7bfe3d363b"><rect x="0" width="285" y="0" height="140"/></clipPath></defs><g transform="matrix(1, 0, 0, 1, 42, 122)"><g clip-path="url(#7bfe3d363b)"><g clip-path="url(#a9cfe81fb9)"><g><g clip-path="url(#b82487412d)"><g fill="#000000" fill-opacity="1"><g transform="translate(0.501475, 43.375348)"><g><path d="M 15.1875 -29.40625 C 17.289062 -29.40625 19.085938 -29.019531 20.578125 -28.25 C 22.078125 -27.476562 23.207031 -26.394531 23.96875 -25 C 24.738281 -23.613281 25.125 -22.003906 25.125 -20.171875 C 25.125 -18.335938 24.738281 -16.726562 23.96875 -15.34375 C 23.207031 -13.957031 22.078125 -12.878906 20.578125 -12.109375 C 19.085938 -11.335938 17.289062 -10.953125 15.1875 -10.953125 L 9.640625 -10.953125 L 9.640625 0 L 3.828125 0 L 3.828125 -29.40625 Z M 14.421875 -15.5625 C 17.648438 -15.5625 19.265625 -17.097656 19.265625 -20.171875 C 19.265625 -23.253906 17.648438 -24.796875 14.421875 -24.796875 L 9.640625 -24.796875 L 9.640625 -15.5625 Z M 14.421875 -15.5625 "/></g></g></g><g fill="#000000" fill-opacity="1"><g transform="translate(26.542215, 43.375348)"><g><path d="M 3.203125 0 L 3.203125 -22.1875 L 8.609375 -22.1875 L 8.609375 -18.890625 L 9.03125 -18.796875 C 9.5625 -20.035156 10.265625 -20.941406 11.140625 -21.515625 C 12.015625 -22.097656 13.070312 -22.390625 14.3125 -22.390625 C 15.570312 -22.390625 16.53125 -22.171875 17.1875 -21.734375 L 16.25 -16.9375 L 15.828125 -16.859375 C 15.460938 -17.003906 15.113281 -17.109375 14.78125 -17.171875 C 14.445312 -17.242188 14.039062 -17.28125 13.5625 -17.28125 C 12 -17.28125 10.804688 -16.734375 9.984375 -15.640625 C 9.171875 -14.546875 8.765625 -12.789062 8.765625 -10.375 L 8.765625 0 Z M 3.203125 0 "/></g></g></g><g fill="#000000" fill-opacity="1"><g transform="translate(43.112061, 43.375348)"><g><path d="M 12.890625 0.421875 C 10.722656 0.421875 8.816406 -0.0195312 7.171875 -0.90625 C 5.523438 -1.800781 4.25 -3.109375 3.34375 -4.828125 C 2.4375 -6.554688 1.984375 -8.640625 1.984375 -11.078125 C 1.984375 -13.515625 2.4375 -15.597656 3.34375 -17.328125 C 4.25 -19.066406 5.523438 -20.378906 7.171875 -21.265625 C 8.816406 -22.160156 10.722656 -22.609375 12.890625 -22.609375 C 15.066406 -22.609375 16.972656 -22.160156 18.609375 -21.265625 C 20.253906 -20.378906 21.53125 -19.066406 22.4375 -17.328125 C 23.351562 -15.597656 23.8125 -13.515625 23.8125 -11.078125 C 23.8125 -8.640625 23.351562 -6.554688 22.4375 -4.828125 C 21.53125 -3.109375 20.253906 -1.800781 18.609375 -0.90625 C 16.972656 -0.0195312 15.066406 0.421875 12.890625 0.421875 Z M 12.890625 -4.296875 C 16.335938 -4.296875 18.0625 -6.554688 18.0625 -11.078125 C 18.0625 -13.421875 17.617188 -15.140625 16.734375 -16.234375 C 15.847656 -17.328125 14.566406 -17.875 12.890625 -17.875 C 9.441406 -17.875 7.71875 -15.609375 7.71875 -11.078125 C 7.71875 -6.554688 9.441406 -4.296875 12.890625 -4.296875 Z M 12.890625 -4.296875 "/></g></g></g><g fill="#000000" fill-opacity="1"><g transform="translate(68.066966, 43.375348)"><g><path d="M 10.953125 0.421875 C 9.203125 0.421875 7.648438 0 6.296875 -0.84375 C 4.953125 -1.695312 3.894531 -2.984375 3.125 -4.703125 C 2.363281 -6.429688 1.984375 -8.554688 1.984375 -11.078125 C 1.984375 -13.609375 2.375 -15.734375 3.15625 -17.453125 C 3.945312 -19.179688 5.035156 -20.472656 6.421875 -21.328125 C 7.804688 -22.179688 9.410156 -22.609375 11.234375 -22.609375 C 12.617188 -22.609375 13.816406 -22.367188 14.828125 -21.890625 C 15.835938 -21.410156 16.691406 -20.671875 17.390625 -19.671875 L 17.8125 -19.765625 L 17.8125 -31.09375 L 23.390625 -31.09375 L 23.390625 0 L 17.8125 0 L 17.8125 -2.875 L 17.390625 -2.953125 C 16.773438 -1.910156 15.929688 -1.085938 14.859375 -0.484375 C 13.785156 0.117188 12.484375 0.421875 10.953125 0.421875 Z M 12.765625 -4.296875 C 14.335938 -4.296875 15.578125 -4.851562 16.484375 -5.96875 C 17.398438 -7.09375 17.859375 -8.796875 17.859375 -11.078125 C 17.859375 -13.359375 17.398438 -15.0625 16.484375 -16.1875 C 15.578125 -17.3125 14.335938 -17.875 12.765625 -17.875 C 11.128906 -17.875 9.878906 -17.328125 9.015625 -16.234375 C 8.148438 -15.140625 7.71875 -13.421875 7.71875 -11.078125 C 7.71875 -8.742188 8.148438 -7.03125 9.015625 -5.9375 C 9.878906 -4.84375 11.128906 -4.296875 12.765625 -4.296875 Z M 12.765625 -4.296875 "/></g></g></g><g fill="#000000" fill-opacity="1"><g transform="translate(93.826194, 43.375348)"><g><path d="M 10.15625 0.421875 C 7.664062 0.421875 5.828125 -0.253906 4.640625 -1.609375 C 3.453125 -2.972656 2.859375 -4.929688 2.859375 -7.484375 L 2.859375 -22.1875 L 8.421875 -22.1875 L 8.421875 -8.1875 C 8.421875 -6.832031 8.710938 -5.84375 9.296875 -5.21875 C 9.878906 -4.59375 10.78125 -4.28125 12 -4.28125 C 13.539062 -4.28125 14.738281 -4.785156 15.59375 -5.796875 C 16.457031 -6.816406 16.890625 -8.410156 16.890625 -10.578125 L 16.890625 -22.1875 L 22.46875 -22.1875 L 22.46875 0 L 17.109375 0 L 17.109375 -3.265625 L 16.6875 -3.359375 C 15.976562 -2.085938 15.109375 -1.140625 14.078125 -0.515625 C 13.054688 0.109375 11.75 0.421875 10.15625 0.421875 Z M 10.15625 0.421875 "/></g></g></g><g fill="#000000" fill-opacity="1"><g transform="translate(118.660452, 43.375348)"><g><path d="M 12.9375 0.421875 C 10.789062 0.421875 8.890625 -0.0195312 7.234375 -0.90625 C 5.585938 -1.800781 4.300781 -3.113281 3.375 -4.84375 C 2.445312 -6.570312 1.984375 -8.648438 1.984375 -11.078125 C 1.984375 -13.515625 2.445312 -15.597656 3.375 -17.328125 C 4.300781 -19.066406 5.582031 -20.378906 7.21875 -21.265625 C 8.851562 -22.160156 10.722656 -22.609375 12.828125 -22.609375 C 17.503906 -22.609375 20.503906 -20.910156 21.828125 -17.515625 L 18 -14.78125 L 17.578125 -14.78125 C 17.117188 -15.820312 16.523438 -16.597656 15.796875 -17.109375 C 15.066406 -17.617188 14.078125 -17.875 12.828125 -17.875 C 11.222656 -17.875 9.96875 -17.316406 9.0625 -16.203125 C 8.164062 -15.097656 7.71875 -13.390625 7.71875 -11.078125 C 7.71875 -8.796875 8.171875 -7.09375 9.078125 -5.96875 C 9.992188 -4.851562 11.28125 -4.296875 12.9375 -4.296875 C 14.132812 -4.296875 15.148438 -4.617188 15.984375 -5.265625 C 16.828125 -5.921875 17.429688 -6.859375 17.796875 -8.078125 L 18.21875 -8.125 L 22.1875 -5.953125 C 21.625 -4.078125 20.578125 -2.546875 19.046875 -1.359375 C 17.523438 -0.171875 15.488281 0.421875 12.9375 0.421875 Z M 12.9375 0.421875 "/></g></g></g><g fill="#000000" fill-opacity="1"><g transform="translate(140.699689, 43.375348)"><g><path d="M 15.296875 -5.296875 L 16.75 -1.171875 C 16.144531 -0.671875 15.382812 -0.28125 14.46875 0 C 13.5625 0.28125 12.535156 0.421875 11.390625 0.421875 C 8.984375 0.421875 7.15625 -0.226562 5.90625 -1.53125 C 4.664062 -2.84375 4.046875 -4.742188 4.046875 -7.234375 L 4.046875 -17.78125 L 0.65625 -17.78125 L 0.65625 -22.203125 L 4.046875 -22.203125 L 4.046875 -26.53125 L 9.609375 -27.4375 L 9.609375 -22.203125 L 15.90625 -22.203125 L 15.90625 -17.78125 L 9.609375 -17.78125 L 9.609375 -7.640625 C 9.609375 -6.546875 9.835938 -5.742188 10.296875 -5.234375 C 10.753906 -4.734375 11.414062 -4.484375 12.28125 -4.484375 C 13.28125 -4.484375 14.144531 -4.753906 14.875 -5.296875 Z M 15.296875 -5.296875 "/></g></g></g></g></g></g><g clip-path="url(#62d525f5ff)"><g transform="matrix(1, 0, 0, 1, 0, 41)"><g clip-path="url(#96f55eb5bb)"><g fill="#ff751f" fill-opacity="1"><g transform="translate(0.501475, 43.802488)"><g><path d="M 9.640625 -29.40625 L 9.640625 -4.859375 L 22.84375 -4.859375 L 22.84375 0 L 3.828125 0 L 3.828125 -29.40625 Z M 9.640625 -29.40625 "/></g></g></g><g fill="#ff751f" fill-opacity="1"><g transform="translate(23.485791, 43.802488)"><g><path d="M 8.640625 0.421875 C 7.222656 0.421875 5.988281 0.160156 4.9375 -0.359375 C 3.894531 -0.878906 3.09375 -1.644531 2.53125 -2.65625 C 1.96875 -3.675781 1.6875 -4.894531 1.6875 -6.3125 C 1.6875 -7.625 1.96875 -8.722656 2.53125 -9.609375 C 3.09375 -10.503906 3.960938 -11.238281 5.140625 -11.8125 C 6.328125 -12.382812 7.875 -12.820312 9.78125 -13.125 C 11.101562 -13.34375 12.109375 -13.578125 12.796875 -13.828125 C 13.492188 -14.085938 13.960938 -14.378906 14.203125 -14.703125 C 14.441406 -15.023438 14.5625 -15.429688 14.5625 -15.921875 C 14.5625 -16.640625 14.3125 -17.1875 13.8125 -17.5625 C 13.320312 -17.9375 12.5 -18.125 11.34375 -18.125 C 10.113281 -18.125 8.941406 -17.847656 7.828125 -17.296875 C 6.710938 -16.742188 5.742188 -16.019531 4.921875 -15.125 L 4.53125 -15.125 L 2.1875 -18.640625 C 3.3125 -19.890625 4.6875 -20.863281 6.3125 -21.5625 C 7.9375 -22.257812 9.707031 -22.609375 11.625 -22.609375 C 14.5625 -22.609375 16.6875 -21.984375 18 -20.734375 C 19.3125 -19.484375 19.96875 -17.710938 19.96875 -15.421875 L 19.96875 -5.796875 C 19.96875 -4.796875 20.40625 -4.296875 21.28125 -4.296875 C 21.613281 -4.296875 21.941406 -4.359375 22.265625 -4.484375 L 22.546875 -4.40625 L 22.953125 -0.515625 C 22.640625 -0.316406 22.207031 -0.15625 21.65625 -0.03125 C 21.101562 0.09375 20.5 0.15625 19.84375 0.15625 C 18.519531 0.15625 17.484375 -0.0976562 16.734375 -0.609375 C 15.992188 -1.117188 15.460938 -1.914062 15.140625 -3 L 14.71875 -3.03125 C 13.632812 -0.726562 11.609375 0.421875 8.640625 0.421875 Z M 10.421875 -3.734375 C 11.703125 -3.734375 12.726562 -4.164062 13.5 -5.03125 C 14.269531 -5.894531 14.65625 -7.097656 14.65625 -8.640625 L 14.65625 -10.90625 L 14.28125 -10.984375 C 13.945312 -10.710938 13.503906 -10.484375 12.953125 -10.296875 C 12.410156 -10.117188 11.632812 -9.945312 10.625 -9.78125 C 9.414062 -9.570312 8.546875 -9.222656 8.015625 -8.734375 C 7.484375 -8.242188 7.21875 -7.550781 7.21875 -6.65625 C 7.21875 -5.707031 7.5 -4.984375 8.0625 -4.484375 C 8.625 -3.984375 9.410156 -3.734375 10.421875 -3.734375 Z M 10.421875 -3.734375 "/></g></g></g><g fill="#ff751f" fill-opacity="1"><g transform="translate(46.047838, 43.802488)"><g><path d="M 15.5 0.421875 C 12.675781 0.421875 10.570312 -0.632812 9.1875 -2.75 L 8.765625 -2.671875 L 8.765625 0 L 3.203125 0 L 3.203125 -31.09375 L 8.765625 -31.09375 L 8.765625 -19.5625 L 9.1875 -19.484375 C 9.957031 -20.546875 10.859375 -21.332031 11.890625 -21.84375 C 12.929688 -22.351562 14.175781 -22.609375 15.625 -22.609375 C 17.425781 -22.609375 18.992188 -22.1875 20.328125 -21.34375 C 21.671875 -20.5 22.71875 -19.210938 23.46875 -17.484375 C 24.21875 -15.765625 24.59375 -13.628906 24.59375 -11.078125 C 24.59375 -8.554688 24.203125 -6.429688 23.421875 -4.703125 C 22.648438 -2.984375 21.578125 -1.695312 20.203125 -0.84375 C 18.835938 0 17.269531 0.421875 15.5 0.421875 Z M 13.8125 -4.296875 C 15.445312 -4.296875 16.691406 -4.84375 17.546875 -5.9375 C 18.410156 -7.03125 18.84375 -8.742188 18.84375 -11.078125 C 18.84375 -13.421875 18.410156 -15.140625 17.546875 -16.234375 C 16.691406 -17.328125 15.445312 -17.875 13.8125 -17.875 C 12.25 -17.875 11.003906 -17.3125 10.078125 -16.1875 C 9.160156 -15.0625 8.703125 -13.359375 8.703125 -11.078125 C 8.703125 -8.796875 9.160156 -7.09375 10.078125 -5.96875 C 11.003906 -4.851562 12.25 -4.296875 13.8125 -4.296875 Z M 13.8125 -4.296875 "/></g></g></g><g fill="#ff751f" fill-opacity="1"><g transform="translate(71.786957, 43.802488)"><g><path d="M 21.921875 -9.828125 L 7.65625 -9.828125 C 7.820312 -7.898438 8.375 -6.492188 9.3125 -5.609375 C 10.25 -4.734375 11.53125 -4.296875 13.15625 -4.296875 C 14.425781 -4.296875 15.457031 -4.535156 16.25 -5.015625 C 17.039062 -5.492188 17.675781 -6.210938 18.15625 -7.171875 L 18.578125 -7.171875 L 22.28125 -4.8125 C 21.5625 -3.25 20.46875 -1.984375 19 -1.015625 C 17.539062 -0.0546875 15.59375 0.421875 13.15625 0.421875 C 10.863281 0.421875 8.878906 -0.0078125 7.203125 -0.875 C 5.535156 -1.75 4.25 -3.046875 3.34375 -4.765625 C 2.4375 -6.492188 1.984375 -8.597656 1.984375 -11.078125 C 1.984375 -13.597656 2.457031 -15.722656 3.40625 -17.453125 C 4.363281 -19.179688 5.65625 -20.472656 7.28125 -21.328125 C 8.90625 -22.179688 10.726562 -22.609375 12.75 -22.609375 C 15.882812 -22.609375 18.285156 -21.773438 19.953125 -20.109375 C 21.628906 -18.453125 22.46875 -16.015625 22.46875 -12.796875 C 22.46875 -11.628906 22.425781 -10.722656 22.34375 -10.078125 Z M 17.140625 -13.4375 C 17.078125 -15.125 16.679688 -16.351562 15.953125 -17.125 C 15.222656 -17.894531 14.15625 -18.28125 12.75 -18.28125 C 9.9375 -18.28125 8.28125 -16.664062 7.78125 -13.4375 Z M 17.140625 -13.4375 "/></g></g></g><g fill="#ff751f" fill-opacity="1"><g transform="translate(95.072894, 43.802488)"><g><path d="M 9.203125 0.421875 C 7.210938 0.421875 5.691406 -0.113281 4.640625 -1.1875 C 3.585938 -2.269531 3.0625 -3.910156 3.0625 -6.109375 L 3.0625 -31.09375 L 8.625 -31.09375 L 8.625 -6.328125 C 8.625 -4.972656 9.1875 -4.296875 10.3125 -4.296875 C 10.632812 -4.296875 10.976562 -4.351562 11.34375 -4.46875 L 11.625 -4.390625 L 12.125 -0.09375 C 11.820312 0.0625 11.414062 0.1875 10.90625 0.28125 C 10.394531 0.375 9.828125 0.421875 9.203125 0.421875 Z M 9.203125 0.421875 "/></g></g></g></g></g></g><g clip-path="url(#c6fe577c8d)"><g transform="matrix(1, 0, 0, 1, 0, 83)"><g clip-path="url(#3a1695b788)"><g fill="#000000" fill-opacity="1"><g transform="translate(0.501475, 43.039828)"><g><path d="M 16.0625 0.421875 C 13.351562 0.421875 10.96875 -0.140625 8.90625 -1.265625 C 6.84375 -2.390625 5.226562 -4.082031 4.0625 -6.34375 C 2.894531 -8.601562 2.3125 -11.390625 2.3125 -14.703125 C 2.3125 -18.015625 2.894531 -20.800781 4.0625 -23.0625 C 5.226562 -25.320312 6.84375 -27.015625 8.90625 -28.140625 C 10.96875 -29.265625 13.351562 -29.828125 16.0625 -29.828125 C 18.894531 -29.828125 21.300781 -29.269531 23.28125 -28.15625 C 25.257812 -27.050781 26.671875 -25.367188 27.515625 -23.109375 L 23.265625 -20.515625 L 22.765625 -20.53125 C 22.140625 -22.0625 21.285156 -23.15625 20.203125 -23.8125 C 19.117188 -24.476562 17.738281 -24.8125 16.0625 -24.8125 C 13.625 -24.8125 11.722656 -24.003906 10.359375 -22.390625 C 8.992188 -20.773438 8.3125 -18.210938 8.3125 -14.703125 C 8.3125 -11.203125 8.992188 -8.644531 10.359375 -7.03125 C 11.722656 -5.414062 13.625 -4.609375 16.0625 -4.609375 C 19.882812 -4.609375 22.226562 -6.460938 23.09375 -10.171875 L 23.59375 -10.171875 L 27.875 -7.9375 C 27.070312 -5.15625 25.695312 -3.066406 23.75 -1.671875 C 21.800781 -0.273438 19.238281 0.421875 16.0625 0.421875 Z M 16.0625 0.421875 "/></g></g></g><g fill="#000000" fill-opacity="1"><g transform="translate(28.512805, 43.039828)"><g><path d="M 3.203125 0 L 3.203125 -31.09375 L 8.765625 -31.09375 L 8.765625 -19.28125 L 9.1875 -19.203125 C 9.925781 -20.285156 10.832031 -21.125 11.90625 -21.71875 C 12.976562 -22.3125 14.269531 -22.609375 15.78125 -22.609375 C 20.675781 -22.609375 23.125 -19.832031 23.125 -14.28125 L 23.125 0 L 17.5625 0 L 17.5625 -13.578125 C 17.5625 -15.085938 17.257812 -16.1875 16.65625 -16.875 C 16.050781 -17.5625 15.113281 -17.90625 13.84375 -17.90625 C 12.28125 -17.90625 11.039062 -17.382812 10.125 -16.34375 C 9.21875 -15.300781 8.765625 -13.679688 8.765625 -11.484375 L 8.765625 0 Z M 3.203125 0 "/></g></g></g><g fill="#000000" fill-opacity="1"><g transform="translate(53.668791, 43.039828)"><g><path d="M 21.921875 -9.828125 L 7.65625 -9.828125 C 7.820312 -7.898438 8.375 -6.492188 9.3125 -5.609375 C 10.25 -4.734375 11.53125 -4.296875 13.15625 -4.296875 C 14.425781 -4.296875 15.457031 -4.535156 16.25 -5.015625 C 17.039062 -5.492188 17.675781 -6.210938 18.15625 -7.171875 L 18.578125 -7.171875 L 22.28125 -4.8125 C 21.5625 -3.25 20.46875 -1.984375 19 -1.015625 C 17.539062 -0.0546875 15.59375 0.421875 13.15625 0.421875 C 10.863281 0.421875 8.878906 -0.0078125 7.203125 -0.875 C 5.535156 -1.75 4.25 -3.046875 3.34375 -4.765625 C 2.4375 -6.492188 1.984375 -8.597656 1.984375 -11.078125 C 1.984375 -13.597656 2.457031 -15.722656 3.40625 -17.453125 C 4.363281 -19.179688 5.65625 -20.472656 7.28125 -21.328125 C 8.90625 -22.179688 10.726562 -22.609375 12.75 -22.609375 C 15.882812 -22.609375 18.285156 -21.773438 19.953125 -20.109375 C 21.628906 -18.453125 22.46875 -16.015625 22.46875 -12.796875 C 22.46875 -11.628906 22.425781 -10.722656 22.34375 -10.078125 Z M 17.140625 -13.4375 C 17.078125 -15.125 16.679688 -16.351562 15.953125 -17.125 C 15.222656 -17.894531 14.15625 -18.28125 12.75 -18.28125 C 9.9375 -18.28125 8.28125 -16.664062 7.78125 -13.4375 Z M 17.140625 -13.4375 "/></g></g></g><g fill="#000000" fill-opacity="1"><g transform="translate(76.954728, 43.039828)"><g><path d="M 12.9375 0.421875 C 10.789062 0.421875 8.890625 -0.0195312 7.234375 -0.90625 C 5.585938 -1.800781 4.300781 -3.113281 3.375 -4.84375 C 2.445312 -6.570312 1.984375 -8.648438 1.984375 -11.078125 C 1.984375 -13.515625 2.445312 -15.597656 3.375 -17.328125 C 4.300781 -19.066406 5.582031 -20.378906 7.21875 -21.265625 C 8.851562 -22.160156 10.722656 -22.609375 12.828125 -22.609375 C 17.503906 -22.609375 20.503906 -20.910156 21.828125 -17.515625 L 18 -14.78125 L 17.578125 -14.78125 C 17.117188 -15.820312 16.523438 -16.597656 15.796875 -17.109375 C 15.066406 -17.617188 14.078125 -17.875 12.828125 -17.875 C 11.222656 -17.875 9.96875 -17.316406 9.0625 -16.203125 C 8.164062 -15.097656 7.71875 -13.390625 7.71875 -11.078125 C 7.71875 -8.796875 8.171875 -7.09375 9.078125 -5.96875 C 9.992188 -4.851562 11.28125 -4.296875 12.9375 -4.296875 C 14.132812 -4.296875 15.148438 -4.617188 15.984375 -5.265625 C 16.828125 -5.921875 17.429688 -6.859375 17.796875 -8.078125 L 18.21875 -8.125 L 22.1875 -5.953125 C 21.625 -4.078125 20.578125 -2.546875 19.046875 -1.359375 C 17.523438 -0.171875 15.488281 0.421875 12.9375 0.421875 Z M 12.9375 0.421875 "/></g></g></g><g fill="#000000" fill-opacity="1"><g transform="translate(98.993966, 43.039828)"><g><path d="M 3.203125 0 L 3.203125 -31.09375 L 8.765625 -31.09375 L 8.765625 -13.84375 L 9.3125 -13.84375 L 15.734375 -22.1875 L 21.375 -22.1875 L 21.375 -21.71875 L 13.84375 -11.984375 L 22.21875 -0.5 L 22.21875 0 L 16.34375 0 L 9.3125 -9.359375 L 8.765625 -9.359375 L 8.765625 0 Z M 3.203125 0 "/></g></g></g><g fill="#000000" fill-opacity="1"><g transform="translate(120.429962, 43.039828)"><g><path d="M 21.921875 -9.828125 L 7.65625 -9.828125 C 7.820312 -7.898438 8.375 -6.492188 9.3125 -5.609375 C 10.25 -4.734375 11.53125 -4.296875 13.15625 -4.296875 C 14.425781 -4.296875 15.457031 -4.535156 16.25 -5.015625 C 17.039062 -5.492188 17.675781 -6.210938 18.15625 -7.171875 L 18.578125 -7.171875 L 22.28125 -4.8125 C 21.5625 -3.25 20.46875 -1.984375 19 -1.015625 C 17.539062 -0.0546875 15.59375 0.421875 13.15625 0.421875 C 10.863281 0.421875 8.878906 -0.0078125 7.203125 -0.875 C 5.535156 -1.75 4.25 -3.046875 3.34375 -4.765625 C 2.4375 -6.492188 1.984375 -8.597656 1.984375 -11.078125 C 1.984375 -13.597656 2.457031 -15.722656 3.40625 -17.453125 C 4.363281 -19.179688 5.65625 -20.472656 7.28125 -21.328125 C 8.90625 -22.179688 10.726562 -22.609375 12.75 -22.609375 C 15.882812 -22.609375 18.285156 -21.773438 19.953125 -20.109375 C 21.628906 -18.453125 22.46875 -16.015625 22.46875 -12.796875 C 22.46875 -11.628906 22.425781 -10.722656 22.34375 -10.078125 Z M 17.140625 -13.4375 C 17.078125 -15.125 16.679688 -16.351562 15.953125 -17.125 C 15.222656 -17.894531 14.15625 -18.28125 12.75 -18.28125 C 9.9375 -18.28125 8.28125 -16.664062 7.78125 -13.4375 Z M 17.140625 -13.4375 "/></g></g></g><g fill="#000000" fill-opacity="1"><g transform="translate(143.715899, 43.039828)"><g><path d="M 3.203125 0 L 3.203125 -22.1875 L 8.609375 -22.1875 L 8.609375 -18.890625 L 9.03125 -18.796875 C 9.5625 -20.035156 10.265625 -20.941406 11.140625 -21.515625 C 12.015625 -22.097656 13.070312 -22.390625 14.3125 -22.390625 C 15.570312 -22.390625 16.53125 -22.171875 17.1875 -21.734375 L 16.25 -16.9375 L 15.828125 -16.859375 C 15.460938 -17.003906 15.113281 -17.109375 14.78125 -17.171875 C 14.445312 -17.242188 14.039062 -17.28125 13.5625 -17.28125 C 12 -17.28125 10.804688 -16.734375 9.984375 -15.640625 C 9.171875 -14.546875 8.765625 -12.789062 8.765625 -10.375 L 8.765625 0 Z M 3.203125 0 "/></g></g></g></g></g></g><g clip-path="url(#5b57221be7)"><path fill="#ff751f" d="M 264.898438 135.347656 L 187.191406 135.347656 C 176.347656 135.347656 167.558594 126.558594 167.558594 115.714844 L 167.558594 38.007812 C 167.558594 27.164062 176.347656 18.378906 187.191406 18.378906 L 264.898438 18.378906 C 275.742188 18.378906 284.527344 27.164062 284.527344 38.007812 L 284.527344 115.714844 C 284.527344 126.558594 275.742188 135.347656 264.898438 135.347656 Z M 264.898438 135.347656 " fill-opacity="1" fill-rule="nonzero"/></g><path fill="#ffffff" d="M 267.261719 48.066406 C 264.238281 45.042969 259.3125 45.042969 256.289062 48.066406 L 215.125 89.230469 L 196.003906 70.132812 C 192.980469 67.113281 188.054688 67.113281 185.03125 70.132812 C 182.011719 73.15625 182.011719 78.082031 185.03125 81.105469 L 209.335938 105.40625 C 209.410156 105.507812 209.511719 105.585938 209.613281 105.6875 C 211.136719 107.210938 213.117188 107.972656 215.097656 107.945312 C 217.078125 107.945312 219.085938 107.183594 220.585938 105.6875 C 220.6875 105.585938 220.761719 105.507812 220.863281 105.40625 L 267.261719 59.011719 C 270.308594 55.988281 270.308594 51.085938 267.261719 48.066406 Z M 267.261719 48.066406 " fill-opacity="1" fill-rule="nonzero"/></g></g></svg>